<svg version="1.1" preserveAspectRatio="none" xmlns="http://www.w3.org/2000/svg" width="500" height="500" viewBox="0 0 500 500"><rect width="100%" height="100%" fill="#101010" fill-opacity="1"/><svg viewBox="98.9041 144 302.1917 213.2" width="333" height="234.93563853673012" x="83.5px" y="132.5322px" xmlns="http://www.w3.org/2000/svg" xmlns:xlink="http://www.w3.org/1999/xlink" preserveAspectRatio="none"><defs></defs><style>.icon1 {fill:#EBEBEB;fill-opacity:1;}.icon2 {fill:#D4D4D4;fill-opacity:1;}.icon3 {fill:#A0A0A0;fill-opacity:1;}.icon3-str {stroke:#A0A0A0;stroke-opacity:1;}</style><g opacity="1" transform="rotate(0 119.4074 338)">
<svg width="261.1852" height="19.2" x="119.4074" y="338" version="1.1" preserveAspectRatio="none" viewBox="2.44 -28.32 389.6 28.64">
  <g transform="matrix(1 0 0 1 0 0)" class="icon3"><path id="id-6izo4zJp15" d="M2.84 0Q2.44 0 2.44-0.40L2.44-0.40L2.44-27.60Q2.44-28 2.84-28L2.84-28L5.88-28Q6.20-28 6.32-27.68L6.32-27.68L10.40-17.96Q10.44-17.88 10.52-17.88Q10.60-17.88 10.64-17.96L10.64-17.96L14.80-27.68Q14.92-28 15.24-28L15.24-28L18.28-28Q18.68-28 18.68-27.60L18.68-27.60L18.68-0.40Q18.68 0 18.28 0L18.28 0L15.24 0Q14.84 0 14.84-0.40L14.84-0.40L14.84-18.52Q14.84-18.64 14.78-18.64Q14.72-18.64 14.64-18.56L14.64-18.56L10.92-10.64Q10.80-10.36 10.60-10.36L10.60-10.36Q10.32-10.36 10.20-10.64L10.20-10.64L6.48-18.60Q6.40-18.68 6.34-18.68Q6.28-18.68 6.28-18.56L6.28-18.56L6.28-0.40Q6.28 0 5.88 0L5.88 0L2.84 0Z M45.72 0Q45.36 0 45.28-0.36L45.28-0.36L44.40-4.96Q44.40-5.04 44.34-5.08Q44.28-5.12 44.20-5.12L44.20-5.12L37.76-5.12Q37.68-5.12 37.62-5.08Q37.56-5.04 37.56-4.96L37.56-4.96L36.64-0.36Q36.60 0 36.20 0L36.20 0L33.16 0Q32.96 0 32.86-0.12Q32.76-0.24 32.80-0.44L32.80-0.44L38.76-27.64Q38.84-28 39.20-28L39.20-28L42.72-28Q43.12-28 43.16-27.64L43.16-27.64L49.20-0.44L49.20-0.36Q49.20 0 48.84 0L48.84 0L45.72 0ZM38.24-8.32Q38.24-8.16 38.36-8.16L38.36-8.16L43.64-8.16Q43.76-8.16 43.76-8.32L43.76-8.32L41.12-22Q41.08-22.12 41.04-22.12Q41-22.12 40.96-22L40.96-22L38.24-8.32Z M63.28 0Q62.88 0 62.88-0.40L62.88-0.40L62.88-27.60Q62.88-28 63.28-28L63.28-28L66.32-28Q66.72-28 66.72-27.60L66.72-27.60L66.72-15.60Q66.72-15.48 66.80-15.46Q66.88-15.44 66.92-15.56L66.92-15.56L73.72-27.72Q73.92-28 74.20-28L74.20-28L77.48-28Q77.72-28 77.80-27.86Q77.88-27.72 77.76-27.52L77.76-27.52L71.60-16.40Q71.56-16.28 71.60-16.16L71.60-16.16L78.28-0.48L78.32-0.32Q78.32 0 77.96 0L77.96 0L74.64 0Q74.32 0 74.20-0.32L74.20-0.32L69-12.80Q68.96-13 68.80-12.84L68.80-12.84L66.76-9.60Q66.72-9.56 66.72-9.40L66.72-9.40L66.72-0.40Q66.72 0 66.32 0L66.32 0L63.28 0Z M104.92-25.08Q104.92-24.68 104.52-24.68L104.52-24.68L95.52-24.68Q95.36-24.68 95.36-24.52L95.36-24.52L95.36-15.84Q95.36-15.68 95.52-15.68L95.52-15.68L101.04-15.68Q101.44-15.68 101.44-15.28L101.44-15.28L101.44-12.76Q101.44-12.36 101.04-12.36L101.04-12.36L95.52-12.36Q95.36-12.36 95.36-12.20L95.36-12.20L95.36-3.48Q95.36-3.32 95.52-3.32L95.52-3.32L104.52-3.32Q104.92-3.32 104.92-2.92L104.92-2.92L104.92-0.40Q104.92 0 104.52 0L104.52 0L91.92 0Q91.52 0 91.52-0.40L91.52-0.40L91.52-27.60Q91.52-28 91.92-28L91.92-28L104.52-28Q104.92-28 104.92-27.60L104.92-27.60L104.92-25.08Z M141.64-0.04Q141.24-0.04 141.24-0.44L141.24-0.44L141.24-11.88L141.20-12.08L135.64-27.56L135.60-27.72Q135.60-28 135.96-28L135.96-28L139.16-28Q139.52-28 139.64-27.68L139.64-27.68L143.04-16.64Q143.08-16.56 143.16-16.56Q143.24-16.56 143.28-16.64L143.28-16.64L146.68-27.68Q146.80-28 147.16-28L147.16-28L150.36-28Q150.80-28 150.68-27.56L150.68-27.56L145.12-12.08L145.08-11.88L145.08-0.44Q145.08-0.04 144.68-0.04L144.68-0.04L141.64-0.04Z M170.60 0.32Q167.32 0.32 165.32-1.68Q163.32-3.68 163.32-7L163.32-7L163.32-20.96Q163.32-24.28 165.32-26.30Q167.32-28.32 170.60-28.32L170.60-28.32Q173.92-28.32 175.94-26.30Q177.96-24.28 177.96-20.96L177.96-20.96L177.96-7Q177.96-3.68 175.94-1.68Q173.92 0.32 170.60 0.32L170.60 0.32ZM170.60-3Q172.20-3 173.16-4.06Q174.12-5.12 174.12-6.84L174.12-6.84L174.12-21.16Q174.12-22.88 173.16-23.94Q172.20-25 170.60-25L170.60-25Q169.04-25 168.10-23.94Q167.16-22.88 167.16-21.16L167.16-21.16L167.16-6.84Q167.16-5.12 168.10-4.06Q169.04-3 170.60-3L170.60-3Z M199.40 0.32Q196.12 0.32 194.14-1.86Q192.16-4.04 192.16-7.60L192.16-7.60L192.16-27.60Q192.16-28 192.56-28L192.56-28L195.60-28Q196-28 196-27.60L196-27.60L196-7.20Q196-5.32 196.94-4.16Q197.88-3 199.40-3L199.40-3Q200.96-3 201.90-4.16Q202.84-5.32 202.84-7.20L202.84-7.20L202.84-27.60Q202.84-28 203.24-28L203.24-28L206.28-28Q206.68-28 206.68-27.60L206.68-27.60L206.68-7.60Q206.68-4.04 204.68-1.86Q202.68 0.32 199.40 0.32L199.40 0.32Z M232.56 0Q232.20 0 232.08-0.32L232.08-0.32L228.36-12.32Q228.32-12.44 228.20-12.44L228.20-12.44L225.44-12.44Q225.28-12.44 225.28-12.28L225.28-12.28L225.28-0.40Q225.28 0 224.88 0L224.88 0L221.84 0Q221.44 0 221.44-0.40L221.44-0.40L221.44-27.64Q221.44-28.04 221.84-28.04L221.84-28.04L229-28.04Q231.04-28.04 232.60-27.04Q234.16-26.04 235.02-24.22Q235.88-22.40 235.88-20.08L235.88-20.08Q235.88-17.56 234.82-15.70Q233.76-13.84 231.96-13.04L231.96-13.04Q231.84-12.92 231.88-12.80L231.88-12.80L236-0.44L236.04-0.28Q236.04 0 235.68 0L235.68 0L232.56 0ZM225.44-24.72Q225.28-24.72 225.28-24.56L225.28-24.56L225.28-15.60Q225.28-15.44 225.44-15.44L225.44-15.44L228.40-15.44Q230.04-15.44 231.04-16.70Q232.04-17.96 232.04-20.04L232.04-20.04Q232.04-22.20 231.04-23.46Q230.04-24.72 228.40-24.72L228.40-24.72L225.44-24.72Z M282.12-7.64Q282.12-4 280.06-2Q278.00 0 274.64 0L274.64 0L267.96 0Q267.56 0 267.56-0.40L267.56-0.40L267.56-27.60Q267.56-28 267.96-28L267.96-28L274.08-28Q277.72-28 279.78-26.10Q281.84-24.20 281.84-20.56L281.84-20.56Q281.84-16.24 278.76-14.60L278.76-14.60Q278.56-14.48 278.72-14.40L278.72-14.40Q280.32-13.44 281.22-11.72Q282.12-10 282.12-7.64L282.12-7.64ZM271.56-24.68Q271.40-24.68 271.40-24.52L271.40-24.52L271.40-16.04Q271.40-15.88 271.56-15.88L271.56-15.88L274.12-15.88Q276.00-15.88 277.04-17.02Q278.08-18.16 278.08-20.20L278.08-20.20Q278.08-22.32 277.04-23.50Q276.00-24.68 274.12-24.68L274.12-24.68L271.56-24.68ZM274.32-3.36Q276.16-3.36 277.22-4.60Q278.28-5.84 278.28-8.12L278.28-8.12Q278.28-10.44 277.24-11.74Q276.20-13.04 274.36-13.04L274.36-13.04L271.56-13.04Q271.40-13.04 271.40-12.88L271.40-12.88L271.40-3.52Q271.40-3.36 271.56-3.36L271.56-3.36L274.32-3.36Z M296.20 0Q295.80 0 295.80-0.40L295.80-0.40L295.80-27.60Q295.80-28 296.20-28L296.20-28L299.24-28Q299.64-28 299.64-27.60L299.64-27.60L299.64-3.48Q299.64-3.32 299.80-3.32L299.80-3.32L308.76-3.32Q309.16-3.32 309.16-2.92L309.16-2.92L309.16-0.40Q309.16 0 308.76 0L308.76 0L296.20 0Z M328.72 0.32Q325.44 0.32 323.44-1.68Q321.44-3.68 321.44-7L321.44-7L321.44-20.96Q321.44-24.28 323.44-26.30Q325.44-28.32 328.72-28.32L328.72-28.32Q332.04-28.32 334.06-26.30Q336.08-24.28 336.08-20.96L336.08-20.96L336.08-7Q336.08-3.68 334.06-1.68Q332.04 0.32 328.72 0.32L328.72 0.32ZM328.72-3Q330.32-3 331.28-4.06Q332.24-5.12 332.24-6.84L332.24-6.84L332.24-21.16Q332.24-22.88 331.28-23.94Q330.32-25 328.72-25L328.72-25Q327.16-25 326.22-23.94Q325.28-22.88 325.28-21.16L325.28-21.16L325.28-6.84Q325.28-5.12 326.22-4.06Q327.16-3 328.72-3L328.72-3Z M357.12 0.32Q353.88 0.32 351.90-1.60Q349.92-3.52 349.92-6.68L349.92-6.68L349.92-21.32Q349.92-24.48 351.90-26.40Q353.88-28.32 357.12-28.32L357.12-28.32Q360.36-28.32 362.36-26.40Q364.36-24.48 364.36-21.28L364.36-21.28L364.36-19.60Q364.36-19.20 363.96-19.20L363.96-19.20L360.92-19.20Q360.52-19.20 360.52-19.60L360.52-19.60L360.52-21.36Q360.52-23 359.58-24Q358.64-25 357.12-25L357.12-25Q355.60-25 354.66-24Q353.72-23 353.72-21.36L353.72-21.36L353.72-6.64Q353.72-5 354.66-4Q355.60-3 357.12-3L357.12-3Q358.64-3 359.58-4Q360.52-5 360.52-6.64L360.52-6.64L360.52-11.04Q360.52-11.20 360.36-11.20L360.36-11.20L357.32-11.20Q356.92-11.20 356.92-11.60L356.92-11.60L356.92-14.08Q356.92-14.48 357.32-14.48L357.32-14.48L363.96-14.48Q364.36-14.48 364.36-14.08L364.36-14.08L364.36-6.68Q364.36-3.52 362.36-1.60Q360.36 0.32 357.12 0.32L357.12 0.32Z M384.92 0.32Q381.76 0.32 379.82-1.66Q377.88-3.64 377.88-6.84L377.88-6.84L377.88-7.92Q377.88-8.32 378.28-8.32L378.28-8.32L381.24-8.32Q381.64-8.32 381.64-7.92L381.64-7.92L381.64-7.04Q381.64-5.20 382.56-4.10Q383.48-3 384.92-3L384.92-3Q386.36-3 387.30-4.06Q388.24-5.12 388.24-6.84L388.24-6.84Q388.24-8 387.74-8.88Q387.24-9.76 386.42-10.46Q385.60-11.16 383.76-12.52L383.76-12.52Q381.72-14.04 380.56-15.12Q379.40-16.20 378.60-17.72Q377.80-19.24 377.80-21.28L377.80-21.28Q377.80-24.52 379.72-26.42Q381.64-28.32 384.72-28.32L384.72-28.32Q387.92-28.32 389.86-26.28Q391.80-24.24 391.80-20.92L391.80-20.92L391.80-19.92Q391.80-19.52 391.40-19.52L391.40-19.52L388.44-19.52Q388.04-19.52 388.04-19.92L388.04-19.92L388.04-21Q388.04-22.80 387.12-23.90Q386.20-25 384.72-25L384.72-25Q383.32-25 382.46-24.02Q381.60-23.04 381.60-21.28L381.60-21.28Q381.60-19.68 382.48-18.58Q383.36-17.48 385.84-15.64L385.84-15.64Q388.28-13.84 389.50-12.72Q390.72-11.60 391.38-10.26Q392.04-8.92 392.04-7.08L392.04-7.08Q392.04-3.72 390.06-1.70Q388.08 0.32 384.92 0.32L384.92 0.32Z"/></g>
</svg>
</g><g opacity="1" transform="rotate(0 214.4284 144)">
<svg width="71.1431" height="84" x="214.4284" y="144" version="1.1" preserveAspectRatio="none" viewBox="32.458580017089844 19.999998092651367 135.3414306640625 159.79998779296875">
  <g transform="matrix(-1 0 0 1 200.2585906982422 0)"><g><path d="M167.5 109.2v-.5l-40.6-70c-.2-.3-.5-.5-.8-.5H94L75.4 20.3s-.1 0-.1-.1l-.1-.1c-.1 0-.2-.1-.3-.1h-.5c-.1 0-.1 0-.2.1L44.4 38.3c-.1.1-.2.1-.2.2-.2.2-.2.3-.2.4L32.5 89.7v.4c-.1.2 0 .5.1.7l41.2 70.4c0 .1.1.1.1.2.1.1.3.2.4.2H110l15.3 17.9c.1.1.2.2.3.2h.1c.1 0 .2.1.4.1h.3c.1 0 .1 0 .2-.1h.1l29.8-18.2.1-.1c.1 0 .1-.1.2-.1l.1-.1c0-.1.1-.1.1-.2v-.1l10.8-51.8c-.3.2-.3.2-.3.1zM155 159.9h-16.8l26.2-45.2-9.4 45.2zm-2.6 1.9l-23.7 14.4 8.4-14.4h15.3zM99 146.2L36.2 91l126.7 18.5L99 146.2zm-24 13.4L36.6 93.9l60.6 53.3L75 159.6zm-29.5-119l12.2 7L35.6 85l9.9-44.4zM60.4 47l4.1-6.9h28.8l67.5 64.8L60.4 47zm100.8 60.3L35.5 88.9l23.9-40.3 101.8 58.7zM58.7 46l-10.2-5.9h13.7L58.7 46zm-10.4-7.8l23.6-14.4-8.5 14.4H48.3zm116.1 72.7l-28.4 49h-25.1l-10.5-12.3 64-36.7zm-39-70.8l36.9 63.6L96 40.1h29.4zm-59.8-1.9l9.3-15.7 16.4 15.7H65.6zm12.8 121.7l20.3-11.3 9.7 11.3h-30zm56.5 1.9l-9 15.6-13.3-15.6h22.3z" data-color="1" class="icon1"></path></g></g>
</svg>
</g><g opacity="1" transform="rotate(0 98.9041 254)">
<svg width="302.1917" height="60" x="98.9041" y="254" version="1.1" preserveAspectRatio="none" viewBox="2.16 -28.32 144.20000000000002 28.64">
  <g transform="matrix(1 0 0 1 0 0)" class="icon1"><path id="id-D6z1nYkh7" d="M17.40-7.68Q17.40-4 15.26-2Q13.12 0 9.68 0L9.68 0L2.64 0Q2.44 0 2.30-0.14Q2.16-0.28 2.16-0.48L2.16-0.48L2.16-27.52Q2.16-27.72 2.30-27.86Q2.44-28 2.64-28L2.64-28L8.96-28Q12.76-28 14.92-26.08Q17.08-24.16 17.08-20.48L17.08-20.48Q17.08-16.36 14.16-14.60L14.16-14.60Q13.96-14.48 14.08-14.36L14.08-14.36Q15.64-13.36 16.52-11.68Q17.40-10 17.40-7.68L17.40-7.68ZM7-24Q6.80-24 6.80-23.80L6.80-23.80L6.80-16.36Q6.80-16.16 7-16.16L7-16.16L9.04-16.16Q10.68-16.16 11.60-17.16Q12.52-18.16 12.52-20L12.52-20Q12.52-21.92 11.60-22.96Q10.68-24 9.04-24L9.04-24L7-24ZM9.32-4.04Q10.92-4.04 11.84-5.16Q12.76-6.28 12.76-8.32L12.76-8.32Q12.76-10.40 11.84-11.58Q10.92-12.76 9.32-12.76L9.32-12.76L7-12.76Q6.80-12.76 6.80-12.56L6.80-12.56L6.80-4.24Q6.80-4.04 7-4.04L7-4.04L9.32-4.04Z M24.32 0Q24.12 0 23.98-0.14Q23.84-0.28 23.84-0.48L23.84-0.48L23.84-27.52Q23.84-27.72 23.98-27.86Q24.12-28 24.32-28L24.32-28L28-28Q28.20-28 28.34-27.86Q28.48-27.72 28.48-27.52L28.48-27.52L28.48-4.20Q28.48-4 28.68-4L28.68-4L37.32-4Q37.52-4 37.66-3.86Q37.80-3.72 37.80-3.52L37.80-3.52L37.80-0.48Q37.80-0.28 37.66-0.14Q37.52 0 37.32 0L37.32 0L24.32 0Z M50.68 0.32Q47.24 0.32 45.14-1.76Q43.04-3.84 43.04-7.28L43.04-7.28L43.04-20.72Q43.04-24.16 45.14-26.24Q47.24-28.32 50.68-28.32L50.68-28.32Q54.12-28.32 56.24-26.24Q58.36-24.16 58.36-20.72L58.36-20.72L58.36-7.28Q58.36-3.84 56.24-1.76Q54.12 0.32 50.68 0.32L50.68 0.32ZM50.68-3.68Q52.04-3.68 52.88-4.62Q53.72-5.56 53.72-7.08L53.72-7.08L53.72-20.92Q53.72-22.44 52.88-23.38Q52.04-24.32 50.68-24.32L50.68-24.32Q49.32-24.32 48.50-23.38Q47.68-22.44 47.68-20.92L47.68-20.92L47.68-7.08Q47.68-5.56 48.50-4.62Q49.32-3.68 50.68-3.68L50.68-3.68Z M72.44 0.32Q69.04 0.32 66.98-1.66Q64.92-3.64 64.92-6.92L64.92-6.92L64.92-21.08Q64.92-24.36 66.98-26.34Q69.04-28.32 72.44-28.32L72.44-28.32Q75.84-28.32 77.94-26.34Q80.04-24.36 80.04-21.04L80.04-21.04L80.04-19.48Q80.04-19.28 79.90-19.14Q79.76-19 79.56-19L79.56-19L75.88-19Q75.68-19 75.54-19.14Q75.40-19.28 75.40-19.48L75.40-19.48L75.40-21.12Q75.40-22.56 74.58-23.44Q73.76-24.32 72.44-24.32L72.44-24.32Q71.12-24.32 70.32-23.44Q69.52-22.56 69.52-21.12L69.52-21.12L69.52-6.88Q69.52-5.44 70.32-4.56Q71.12-3.68 72.44-3.68L72.44-3.68Q73.76-3.68 74.58-4.56Q75.40-5.44 75.40-6.88L75.40-6.88L75.40-10.72Q75.40-10.92 75.20-10.92L75.20-10.92L72.76-10.92Q72.56-10.92 72.42-11.06Q72.28-11.20 72.28-11.40L72.28-11.40L72.28-14.32Q72.28-14.52 72.42-14.66Q72.56-14.80 72.76-14.80L72.76-14.80L79.56-14.80Q79.76-14.80 79.90-14.66Q80.04-14.52 80.04-14.32L80.04-14.32L80.04-6.92Q80.04-3.64 77.94-1.66Q75.84 0.32 72.44 0.32L72.44 0.32Z M97.00-27.52Q97.00-27.72 97.14-27.86Q97.28-28 97.48-28L97.48-28L101.16-28Q101.36-28 101.50-27.86Q101.64-27.72 101.64-27.52L101.64-27.52L101.64-0.48Q101.64-0.28 101.50-0.14Q101.36 0 101.16 0L101.16 0L97.48 0Q97.28 0 97.14-0.14Q97.00-0.28 97.00-0.48L97.00-0.48L97.00-11.80Q97.00-12 96.80-12L96.80-12L91.72-12Q91.52-12 91.52-11.80L91.52-11.80L91.52-0.48Q91.52-0.28 91.38-0.14Q91.24 0 91.04 0L91.04 0L87.36 0Q87.16 0 87.02-0.14Q86.88-0.28 86.88-0.48L86.88-0.48L86.88-27.52Q86.88-27.72 87.02-27.86Q87.16-28 87.36-28L87.36-28L91.04-28Q91.24-28 91.38-27.86Q91.52-27.72 91.52-27.52L91.52-27.52L91.52-16.24Q91.52-16.04 91.72-16.04L91.72-16.04L96.80-16.04Q97.00-16.04 97.00-16.24L97.00-16.24L97.00-27.52Z M116.56 0.32Q113.12 0.32 111.06-1.90Q109.00-4.12 109.00-7.76L109.00-7.76L109.00-27.52Q109.00-27.72 109.14-27.86Q109.28-28 109.48-28L109.48-28L113.16-28Q113.36-28 113.50-27.86Q113.64-27.72 113.64-27.52L113.64-27.52L113.64-7.28Q113.64-5.68 114.44-4.68Q115.24-3.68 116.56-3.68L116.56-3.68Q117.88-3.68 118.68-4.68Q119.48-5.68 119.48-7.28L119.48-7.28L119.48-27.52Q119.48-27.72 119.62-27.86Q119.76-28 119.96-28L119.96-28L123.64-28Q123.84-28 123.98-27.86Q124.12-27.72 124.12-27.52L124.12-27.52L124.12-7.76Q124.12-4.12 122.04-1.90Q119.96 0.32 116.56 0.32L116.56 0.32Z M146.36-7.68Q146.36-4 144.22-2Q142.08 0 138.64 0L138.64 0L131.60 0Q131.40 0 131.26-0.14Q131.12-0.28 131.12-0.48L131.12-0.48L131.12-27.52Q131.12-27.72 131.26-27.86Q131.40-28 131.60-28L131.60-28L137.92-28Q141.72-28 143.88-26.08Q146.04-24.16 146.04-20.48L146.04-20.48Q146.04-16.36 143.12-14.60L143.12-14.60Q142.92-14.48 143.04-14.36L143.04-14.36Q144.60-13.36 145.48-11.68Q146.36-10 146.36-7.68L146.36-7.68ZM135.96-24Q135.76-24 135.76-23.80L135.76-23.80L135.76-16.36Q135.76-16.16 135.96-16.16L135.96-16.16L138-16.16Q139.64-16.16 140.56-17.16Q141.48-18.16 141.48-20L141.48-20Q141.48-21.92 140.56-22.96Q139.64-24 138-24L138-24L135.96-24ZM138.28-4.04Q139.88-4.04 140.80-5.16Q141.72-6.28 141.72-8.32L141.72-8.32Q141.72-10.40 140.80-11.58Q139.88-12.76 138.28-12.76L138.28-12.76L135.96-12.76Q135.76-12.76 135.76-12.56L135.76-12.56L135.76-4.24Q135.76-4.04 135.96-4.04L135.96-4.04L138.28-4.04Z"/></g>
</svg>
</g></svg></svg>